<svg xmlns="http://www.w3.org/2000/svg" viewBox="0 0 1080 1080" role="img" aria-labelledby="title desc">
  <title id="title">MCP Scope v0.3 小红书方图</title>
  <desc id="desc">GitHub 原生报告与一键审计版。</desc>
  <rect width="1080" height="1080" rx="42" fill="#f8fafc"/>
  <rect x="44" y="44" width="992" height="992" rx="34" fill="#ffffff" stroke="#d6e3f0" stroke-width="2"/>
  <g transform="translate(98 92)">
    <rect width="176" height="176" rx="28" fill="#ecfdf5" stroke="#99f6e4" stroke-width="2"/>
    <circle cx="80" cy="80" r="42" fill="#ffffff" stroke="#0f766e" stroke-width="8"/>
    <circle cx="80" cy="80" r="17" fill="#f8fafc" stroke="#2563eb" stroke-width="6"/>
    <path d="M108 108l36 36" stroke="#0f766e" stroke-width="11" stroke-linecap="round"/>
    <path d="M36 80h24M100 80h24M80 36v24M80 100v24" stroke="#2563eb" stroke-width="5" stroke-linecap="round"/>
    <rect x="112" y="20" width="50" height="40" rx="10" fill="#fffbeb" stroke="#f59e0b" stroke-width="4"/>
    <text x="124" y="48" fill="#92400e" font-family="ui-monospace, SFMono-Regular, Menlo, monospace" font-size="19" font-weight="800">{} </text>
  </g>
  <text x="98" y="346" fill="#0f172a" font-family="ui-sans-serif, system-ui, -apple-system, Segoe UI, sans-serif" font-size="76" font-weight="760">MCP Scope v0.3</text>
  <text x="98" y="422" fill="#334155" font-family="ui-sans-serif, system-ui, -apple-system, Segoe UI, sans-serif" font-size="42">GitHub 原生报告</text>
  <text x="98" y="480" fill="#334155" font-family="ui-sans-serif, system-ui, -apple-system, Segoe UI, sans-serif" font-size="42">与一键审计版</text>
  <text x="98" y="540" fill="#64748b" font-family="ui-sans-serif, system-ui, -apple-system, Segoe UI, sans-serif" font-size="27">v0.3.0-preview 草稿 · 仅做静态审查</text>
  <g transform="translate(98 640)" font-family="ui-sans-serif, system-ui, -apple-system, Segoe UI, sans-serif" font-size="34" fill="#0f172a">
    <rect x="0" y="0" width="356" height="72" rx="14" fill="#ecfdf5" stroke="#99f6e4"/>
    <text x="28" y="47">一条 audit 命令</text>
    <rect x="0" y="100" width="276" height="72" rx="14" fill="#eff6ff" stroke="#bfdbfe"/>
    <text x="28" y="147">SARIF 输出</text>
    <rect x="0" y="200" width="410" height="72" rx="14" fill="#fffbeb" stroke="#fde68a"/>
    <text x="28" y="247">Code Scanning 可选</text>
    <rect x="0" y="300" width="366" height="72" rx="14" fill="#f8fafc" stroke="#cbd5e1"/>
    <text x="28" y="347">不执行 MCP server</text>
  </g>
  <text x="98" y="996" fill="#64748b" font-family="ui-sans-serif, system-ui, -apple-system, Segoe UI, sans-serif" font-size="28">github.com/darwinx687-afk/mcp-scope</text>
</svg>
