<svg xmlns="http://www.w3.org/2000/svg" viewBox="0 0 1200 630" role="img" aria-labelledby="title desc">
  <title id="title">MCP Scope social card</title>
  <desc id="desc">Local-first transparency reports for MCP tools.</desc>
  <rect width="1200" height="630" rx="36" fill="#f8fafc"/>
  <rect x="32" y="32" width="1136" height="566" rx="32" fill="#ffffff" stroke="#d6e3f0" stroke-width="2"/>
  <g transform="translate(86 78)">
    <rect width="184" height="184" rx="28" fill="#eef6ff" stroke="#d6e3f0" stroke-width="2"/>
    <circle cx="92" cy="92" r="42" fill="#ffffff" stroke="#0f766e" stroke-width="8"/>
    <circle cx="92" cy="92" r="18" fill="#f8fafc" stroke="#2563eb" stroke-width="6"/>
    <path d="M121 121l32 32" stroke="#0f766e" stroke-width="11" stroke-linecap="round"/>
    <path d="M46 92h25M113 92h25M92 46v25M92 113v25" stroke="#2563eb" stroke-width="5" stroke-linecap="round"/>
    <circle cx="40" cy="92" r="7" fill="#f59e0b"/>
    <circle cx="144" cy="92" r="7" fill="#f59e0b"/>
  </g>
  <text x="316" y="128" fill="#0f172a" font-family="ui-sans-serif, system-ui, -apple-system, Segoe UI, sans-serif" font-size="74" font-weight="760">MCP Scope</text>
  <text x="316" y="190" fill="#334155" font-family="ui-sans-serif, system-ui, -apple-system, Segoe UI, sans-serif" font-size="32">Local-first transparency reports for MCP tools</text>
  <g transform="translate(316 250)" font-family="ui-sans-serif, system-ui, -apple-system, Segoe UI, sans-serif" font-size="29" fill="#0f172a">
    <rect x="0" y="0" width="355" height="54" rx="12" fill="#ecfdf5" stroke="#99f6e4"/>
    <text x="24" y="36">Static analysis only</text>
    <rect x="386" y="0" width="330" height="54" rx="12" fill="#eff6ff" stroke="#bfdbfe"/>
    <text x="410" y="36">No server execution</text>
    <rect x="0" y="78" width="372" height="54" rx="12" fill="#fffbeb" stroke="#fde68a"/>
    <text x="24" y="114">No external API calls</text>
    <rect x="404" y="78" width="340" height="54" rx="12" fill="#f8fafc" stroke="#cbd5e1"/>
    <text x="428" y="114">Secret values redacted</text>
  </g>
  <g transform="translate(88 470)" fill="none" stroke-linecap="round">
    <path d="M0 0h190l38 42h220" stroke="#2563eb" stroke-width="6"/>
    <path d="M0 64h260l34-34h310" stroke="#0f766e" stroke-width="6"/>
    <circle cx="0" cy="0" r="8" fill="#ffffff" stroke="#2563eb" stroke-width="5"/>
    <circle cx="0" cy="64" r="8" fill="#ffffff" stroke="#0f766e" stroke-width="5"/>
  </g>
  <text x="790" y="535" fill="#64748b" font-family="ui-sans-serif, system-ui, -apple-system, Segoe UI, sans-serif" font-size="26">github.com/darwinx687-afk/mcp-scope</text>
</svg>
