<svg xmlns="http://www.w3.org/2000/svg" viewBox="0 0 1080 1080" role="img" aria-labelledby="title desc">
  <title id="title">MCP 透镜 v0.2 方形更新卡片</title>
  <desc id="desc">双语入口与使用体验完善。</desc>
  <rect width="1080" height="1080" rx="42" fill="#f8fafc"/>
  <rect x="52" y="52" width="976" height="976" rx="36" fill="#ffffff" stroke="#d6e3f0" stroke-width="2"/>
  <g transform="translate(430 118)">
    <rect width="220" height="220" rx="34" fill="#eef6ff" stroke="#d6e3f0" stroke-width="2"/>
    <circle cx="110" cy="110" r="50" fill="#ffffff" stroke="#0f766e" stroke-width="9"/>
    <circle cx="110" cy="110" r="22" fill="#f8fafc" stroke="#2563eb" stroke-width="7"/>
    <path d="M145 145l38 38" stroke="#0f766e" stroke-width="13" stroke-linecap="round"/>
    <path d="M56 110h30M134 110h30M110 56v30M110 134v30" stroke="#2563eb" stroke-width="6" stroke-linecap="round"/>
  </g>
  <text x="540" y="422" text-anchor="middle" fill="#0f172a" font-family="ui-sans-serif, system-ui, -apple-system, Segoe UI, sans-serif" font-size="78" font-weight="760">MCP 透镜 v0.2</text>
  <text x="540" y="486" text-anchor="middle" fill="#334155" font-family="ui-sans-serif, system-ui, -apple-system, Segoe UI, sans-serif" font-size="35">双语入口与使用体验完善</text>
  <text x="540" y="536" text-anchor="middle" fill="#64748b" font-family="ui-sans-serif, system-ui, -apple-system, Segoe UI, sans-serif" font-size="28">v0.2.0-preview · 公开 prerelease</text>
  <g transform="translate(220 628)" font-family="ui-sans-serif, system-ui, -apple-system, Segoe UI, sans-serif" font-size="32" fill="#0f172a">
    <rect x="0" y="0" width="640" height="62" rx="14" fill="#ecfdf5" stroke="#99f6e4"/>
    <text x="30" y="41">本地优先</text>
    <rect x="0" y="84" width="640" height="62" rx="14" fill="#eff6ff" stroke="#bfdbfe"/>
    <text x="30" y="125">静态分析</text>
    <rect x="0" y="168" width="640" height="62" rx="14" fill="#fffbeb" stroke="#fde68a"/>
    <text x="30" y="209">不执行 MCP server</text>
    <rect x="0" y="252" width="640" height="62" rx="14" fill="#f8fafc" stroke="#cbd5e1"/>
    <text x="30" y="293">隐藏 secret 值</text>
  </g>
  <text x="540" y="990" text-anchor="middle" fill="#64748b" font-family="ui-sans-serif, system-ui, -apple-system, Segoe UI, sans-serif" font-size="27">github.com/darwinx687-afk/mcp-scope</text>
</svg>
