<svg xmlns="http://www.w3.org/2000/svg" viewBox="0 0 1200 360" role="img" aria-labelledby="title desc">
  <title id="title">MCP Scope banner</title>
  <desc id="desc">MCP Scope, local-first transparency reports for MCP tools.</desc>
  <rect width="1200" height="360" rx="32" fill="#f8fafc"/>
  <rect x="28" y="28" width="1144" height="304" rx="28" fill="#ffffff" stroke="#d6e3f0" stroke-width="2"/>
  <g transform="translate(88 72)">
    <rect x="0" y="0" width="216" height="216" rx="32" fill="#eef6ff" stroke="#d6e3f0" stroke-width="2"/>
    <path d="M46 60h34M46 156h34M136 60h34M136 156h34" stroke="#64748b" stroke-width="8" stroke-linecap="round"/>
    <circle cx="108" cy="108" r="48" fill="#ffffff" stroke="#0f766e" stroke-width="8"/>
    <circle cx="108" cy="108" r="20" fill="#f8fafc" stroke="#2563eb" stroke-width="6"/>
    <path d="M142 142l34 34" stroke="#0f766e" stroke-width="12" stroke-linecap="round"/>
    <path d="M62 108h26M128 108h26M108 62v26M108 128v26" stroke="#2563eb" stroke-width="5" stroke-linecap="round"/>
    <circle cx="46" cy="108" r="7" fill="#f59e0b"/>
    <circle cx="170" cy="108" r="7" fill="#f59e0b"/>
  </g>
  <g transform="translate(360 100)">
    <text x="0" y="0" fill="#0f172a" font-family="Inter, ui-sans-serif, system-ui, -apple-system, BlinkMacSystemFont, Segoe UI, sans-serif" font-size="72" font-weight="760" letter-spacing="0">MCP Scope</text>
    <text x="0" y="64" fill="#334155" font-family="Inter, ui-sans-serif, system-ui, -apple-system, BlinkMacSystemFont, Segoe UI, sans-serif" font-size="31" font-weight="460" letter-spacing="0">Local-first transparency reports for MCP tools</text>
    <g transform="translate(0 110)" fill="none" stroke-linecap="round" stroke-linejoin="round">
      <path d="M0 0h92l22 26h112" stroke="#2563eb" stroke-width="5"/>
      <path d="M0 56h156l22-24h116" stroke="#0f766e" stroke-width="5"/>
      <path d="M0 112h118l26-28h194" stroke="#f59e0b" stroke-width="5"/>
      <circle cx="0" cy="0" r="8" fill="#ffffff" stroke="#2563eb" stroke-width="5"/>
      <circle cx="0" cy="56" r="8" fill="#ffffff" stroke="#0f766e" stroke-width="5"/>
      <circle cx="0" cy="112" r="8" fill="#ffffff" stroke="#f59e0b" stroke-width="5"/>
      <rect x="340" y="-14" width="156" height="32" rx="8" fill="#f8fafc" stroke="#cbd5e1" stroke-width="2"/>
      <rect x="340" y="42" width="186" height="32" rx="8" fill="#f8fafc" stroke="#cbd5e1" stroke-width="2"/>
      <rect x="340" y="98" width="132" height="32" rx="8" fill="#f8fafc" stroke="#cbd5e1" stroke-width="2"/>
    </g>
  </g>
</svg>
